<mxfile host="app.diagrams.net" agent="Mozilla/5.0 (Windows NT 10.0; Win64; x64) AppleWebKit/537.36 (KHTML, like Gecko) Chrome/127.0.0.0 Safari/537.36" version="24.7.6">
  <diagram name="Page-1" id="2YBvvXClWsGukQMizWep">
    <mxGraphModel dx="2284" dy="738" grid="1" gridSize="10" guides="1" tooltips="1" connect="1" arrows="1" fold="1" page="1" pageScale="1" pageWidth="850" pageHeight="1100" math="0" shadow="0">
      <root>
        <mxCell id="0" />
        <mxCell id="1" parent="0" />
        <mxCell id="RGJ-yCgJuge_6X9lLL64-19" value="object &amp;gt;&amp;gt;&lt;div&gt;basicInfo&amp;nbsp;&lt;/div&gt;&lt;div&gt;IncomeDetails&lt;/div&gt;&lt;div&gt;EmployerDetails&amp;nbsp;&lt;/div&gt;&lt;div&gt;NationalAdress&lt;/div&gt;&lt;div&gt;IBAN Details&lt;/div&gt;&lt;div&gt;Expenses&amp;nbsp;&lt;/div&gt;&lt;div&gt;personal info&amp;nbsp;&lt;/div&gt;&lt;div&gt;ExternalLoan Details&amp;nbsp;&lt;/div&gt;&lt;div&gt;ARBAccounts&lt;/div&gt;&lt;div&gt;ALDetails&amp;nbsp;&lt;/div&gt;&lt;div&gt;&lt;br&gt;&lt;/div&gt;" style="text;html=1;align=center;verticalAlign=middle;whiteSpace=wrap;rounded=0;container=0;" parent="1" vertex="1">
          <mxGeometry x="-200" y="274" width="250" height="210" as="geometry" />
        </mxCell>
        <mxCell id="ntPCs5WIHGhH-SsWkMff-1" value="" style="group" vertex="1" connectable="0" parent="1">
          <mxGeometry x="12" y="40" width="727.1304347826086" height="320" as="geometry" />
        </mxCell>
        <mxCell id="aM9ryv3xv72pqoxQDRHE-1" value="Dynamics" style="shape=umlLifeline;perimeter=lifelinePerimeter;whiteSpace=wrap;html=1;container=0;dropTarget=0;collapsible=0;recursiveResize=0;outlineConnect=0;portConstraint=eastwest;newEdgeStyle={&quot;edgeStyle&quot;:&quot;elbowEdgeStyle&quot;,&quot;elbow&quot;:&quot;vertical&quot;,&quot;curved&quot;:0,&quot;rounded&quot;:0};" parent="ntPCs5WIHGhH-SsWkMff-1" vertex="1">
          <mxGeometry x="28" width="100" height="320" as="geometry" />
        </mxCell>
        <mxCell id="aM9ryv3xv72pqoxQDRHE-10" value="store" style="html=1;verticalAlign=bottom;endArrow=open;endSize=8;edgeStyle=elbowEdgeStyle;elbow=vertical;curved=0;rounded=0;" parent="ntPCs5WIHGhH-SsWkMff-1" edge="1">
          <mxGeometry relative="1" as="geometry">
            <mxPoint x="228" y="90" as="targetPoint" />
            <Array as="points">
              <mxPoint x="168" y="90" />
            </Array>
            <mxPoint x="88" y="90" as="sourcePoint" />
          </mxGeometry>
        </mxCell>
        <mxCell id="RGJ-yCgJuge_6X9lLL64-3" value="CRM DB" style="shape=cylinder3;whiteSpace=wrap;html=1;boundedLbl=1;backgroundOutline=1;size=4;container=0;" parent="ntPCs5WIHGhH-SsWkMff-1" vertex="1">
          <mxGeometry x="198" width="60" height="40" as="geometry" />
        </mxCell>
        <mxCell id="RGJ-yCgJuge_6X9lLL64-4" value="" style="endArrow=none;dashed=1;html=1;dashPattern=1 3;strokeWidth=2;rounded=0;" parent="ntPCs5WIHGhH-SsWkMff-1" source="aM9ryv3xv72pqoxQDRHE-2" edge="1">
          <mxGeometry width="50" height="50" relative="1" as="geometry">
            <mxPoint x="228" y="350" as="sourcePoint" />
            <mxPoint x="228" y="40" as="targetPoint" />
          </mxGeometry>
        </mxCell>
        <mxCell id="RGJ-yCgJuge_6X9lLL64-9" value="saveOrUpdateCustomeProfile (map(objectKey , ObjectValue)" style="html=1;verticalAlign=bottom;startArrow=oval;endArrow=block;startSize=8;edgeStyle=elbowEdgeStyle;elbow=vertical;curved=0;rounded=0;" parent="ntPCs5WIHGhH-SsWkMff-1" edge="1">
          <mxGeometry y="63" relative="1" as="geometry">
            <mxPoint y="126" as="sourcePoint" />
            <mxPoint y="126" as="targetPoint" />
            <mxPoint x="-60" y="-20" as="offset" />
          </mxGeometry>
        </mxCell>
        <mxCell id="RGJ-yCgJuge_6X9lLL64-10" value="response" style="html=1;verticalAlign=bottom;endArrow=block;edgeStyle=elbowEdgeStyle;elbow=vertical;curved=0;rounded=0;dashed=1;" parent="ntPCs5WIHGhH-SsWkMff-1" edge="1">
          <mxGeometry relative="1" as="geometry">
            <mxPoint x="224" y="121" as="sourcePoint" />
            <Array as="points">
              <mxPoint x="174" y="121" />
            </Array>
            <mxPoint x="84" y="121" as="targetPoint" />
          </mxGeometry>
        </mxCell>
        <mxCell id="RGJ-yCgJuge_6X9lLL64-16" value="getCustomeProfile (map(objectKey , ObjectValue)" style="html=1;verticalAlign=bottom;startArrow=oval;endArrow=block;startSize=8;edgeStyle=elbowEdgeStyle;elbow=vertical;curved=0;rounded=0;" parent="ntPCs5WIHGhH-SsWkMff-1" edge="1">
          <mxGeometry x="-1" y="70" relative="1" as="geometry">
            <mxPoint x="7" y="206" as="sourcePoint" />
            <mxPoint x="67" y="206" as="targetPoint" />
            <mxPoint x="-69" y="58" as="offset" />
          </mxGeometry>
        </mxCell>
        <mxCell id="RGJ-yCgJuge_6X9lLL64-17" value="retrive data based on required objects" style="html=1;verticalAlign=bottom;endArrow=open;endSize=8;edgeStyle=elbowEdgeStyle;elbow=vertical;curved=0;rounded=0;" parent="ntPCs5WIHGhH-SsWkMff-1" edge="1">
          <mxGeometry x="-0.6429" y="-9" relative="1" as="geometry">
            <mxPoint x="83" y="213" as="targetPoint" />
            <Array as="points">
              <mxPoint x="163" y="213" />
            </Array>
            <mxPoint x="223" y="213" as="sourcePoint" />
            <mxPoint as="offset" />
          </mxGeometry>
        </mxCell>
        <mxCell id="RGJ-yCgJuge_6X9lLL64-20" value="" style="html=1;verticalAlign=bottom;startArrow=oval;endArrow=block;startSize=8;edgeStyle=elbowEdgeStyle;elbow=vertical;curved=0;rounded=0;" parent="ntPCs5WIHGhH-SsWkMff-1" edge="1">
          <mxGeometry x="-1" y="36" relative="1" as="geometry">
            <mxPoint x="8" y="104" as="sourcePoint" />
            <mxPoint x="68" y="104" as="targetPoint" />
            <mxPoint x="-35" y="26" as="offset" />
          </mxGeometry>
        </mxCell>
        <mxCell id="QnVffGnT3mfZB9zbuh3D-3" value="" style="endArrow=none;dashed=1;html=1;dashPattern=1 3;strokeWidth=2;rounded=0;" parent="ntPCs5WIHGhH-SsWkMff-1" source="QnVffGnT3mfZB9zbuh3D-37" target="aM9ryv3xv72pqoxQDRHE-2" edge="1">
          <mxGeometry width="50" height="50" relative="1" as="geometry">
            <mxPoint x="228" y="274" as="sourcePoint" />
            <mxPoint x="228" y="-36" as="targetPoint" />
          </mxGeometry>
        </mxCell>
        <mxCell id="aM9ryv3xv72pqoxQDRHE-2" value="" style="html=1;points=[];perimeter=orthogonalPerimeter;outlineConnect=0;targetShapes=umlLifeline;portConstraint=eastwest;newEdgeStyle={&quot;edgeStyle&quot;:&quot;elbowEdgeStyle&quot;,&quot;elbow&quot;:&quot;vertical&quot;,&quot;curved&quot;:0,&quot;rounded&quot;:0};container=0;" parent="ntPCs5WIHGhH-SsWkMff-1" vertex="1">
          <mxGeometry x="223" y="74" width="10" height="50" as="geometry" />
        </mxCell>
        <mxCell id="QnVffGnT3mfZB9zbuh3D-4" style="rounded=0;orthogonalLoop=1;jettySize=auto;html=1;elbow=vertical;" parent="ntPCs5WIHGhH-SsWkMff-1" edge="1">
          <mxGeometry relative="1" as="geometry">
            <mxPoint x="378" y="90" as="sourcePoint" />
            <mxPoint x="233" y="92" as="targetPoint" />
          </mxGeometry>
        </mxCell>
        <mxCell id="QnVffGnT3mfZB9zbuh3D-5" value="Listner" style="edgeLabel;html=1;align=center;verticalAlign=middle;resizable=0;points=[];container=0;" parent="QnVffGnT3mfZB9zbuh3D-4" vertex="1" connectable="0">
          <mxGeometry x="0.2636" y="-1" relative="1" as="geometry">
            <mxPoint as="offset" />
          </mxGeometry>
        </mxCell>
        <mxCell id="QnVffGnT3mfZB9zbuh3D-12" style="edgeStyle=elbowEdgeStyle;rounded=0;orthogonalLoop=1;jettySize=auto;html=1;elbow=vertical;curved=0;" parent="ntPCs5WIHGhH-SsWkMff-1" edge="1">
          <mxGeometry relative="1" as="geometry">
            <mxPoint x="531.695652173913" y="93" as="targetPoint" />
            <mxPoint x="388.869565217391" y="93" as="sourcePoint" />
          </mxGeometry>
        </mxCell>
        <mxCell id="QnVffGnT3mfZB9zbuh3D-13" value="Pub" style="edgeLabel;html=1;align=center;verticalAlign=middle;resizable=0;points=[];container=0;" parent="QnVffGnT3mfZB9zbuh3D-12" vertex="1" connectable="0">
          <mxGeometry x="-0.2" relative="1" as="geometry">
            <mxPoint as="offset" />
          </mxGeometry>
        </mxCell>
        <mxCell id="QnVffGnT3mfZB9zbuh3D-35" style="edgeStyle=elbowEdgeStyle;rounded=0;orthogonalLoop=1;jettySize=auto;html=1;elbow=vertical;curved=0;" parent="ntPCs5WIHGhH-SsWkMff-1" edge="1">
          <mxGeometry relative="1" as="geometry">
            <mxPoint x="681.695652173913" y="94" as="sourcePoint" />
            <mxPoint x="539.9565217391305" y="94" as="targetPoint" />
          </mxGeometry>
        </mxCell>
        <mxCell id="QnVffGnT3mfZB9zbuh3D-36" value="subscripe" style="edgeLabel;html=1;align=center;verticalAlign=middle;resizable=0;points=[];container=0;" parent="QnVffGnT3mfZB9zbuh3D-35" vertex="1" connectable="0">
          <mxGeometry x="0.4632" y="-1" relative="1" as="geometry">
            <mxPoint as="offset" />
          </mxGeometry>
        </mxCell>
        <mxCell id="QnVffGnT3mfZB9zbuh3D-38" value="" style="endArrow=none;dashed=1;html=1;dashPattern=1 3;strokeWidth=2;rounded=0;" parent="ntPCs5WIHGhH-SsWkMff-1" target="QnVffGnT3mfZB9zbuh3D-37" edge="1">
          <mxGeometry width="50" height="50" relative="1" as="geometry">
            <mxPoint x="228" y="274" as="sourcePoint" />
            <mxPoint x="228" y="124" as="targetPoint" />
          </mxGeometry>
        </mxCell>
        <mxCell id="QnVffGnT3mfZB9zbuh3D-37" value="" style="html=1;points=[];perimeter=orthogonalPerimeter;outlineConnect=0;targetShapes=umlLifeline;portConstraint=eastwest;newEdgeStyle={&quot;edgeStyle&quot;:&quot;elbowEdgeStyle&quot;,&quot;elbow&quot;:&quot;vertical&quot;,&quot;curved&quot;:0,&quot;rounded&quot;:0};container=0;" parent="ntPCs5WIHGhH-SsWkMff-1" vertex="1">
          <mxGeometry x="223.00000000000003" y="200" width="7.83" height="30" as="geometry" />
        </mxCell>
        <mxCell id="RGJ-yCgJuge_6X9lLL64-7" value="" style="html=1;points=[];perimeter=orthogonalPerimeter;outlineConnect=0;targetShapes=umlLifeline;portConstraint=eastwest;newEdgeStyle={&quot;edgeStyle&quot;:&quot;elbowEdgeStyle&quot;,&quot;elbow&quot;:&quot;vertical&quot;,&quot;curved&quot;:0,&quot;rounded&quot;:0};container=0;" parent="ntPCs5WIHGhH-SsWkMff-1" vertex="1">
          <mxGeometry x="73" y="194" width="10" height="50" as="geometry" />
        </mxCell>
        <mxCell id="RGJ-yCgJuge_6X9lLL64-8" value="" style="html=1;points=[];perimeter=orthogonalPerimeter;outlineConnect=0;targetShapes=umlLifeline;portConstraint=eastwest;newEdgeStyle={&quot;edgeStyle&quot;:&quot;elbowEdgeStyle&quot;,&quot;elbow&quot;:&quot;vertical&quot;,&quot;curved&quot;:0,&quot;rounded&quot;:0};container=0;" parent="ntPCs5WIHGhH-SsWkMff-1" vertex="1">
          <mxGeometry x="73" y="84" width="10" height="50" as="geometry" />
        </mxCell>
        <mxCell id="RGJ-yCgJuge_6X9lLL64-21" value="" style="sketch=0;points=[[0,0,0],[0.25,0,0],[0.5,0,0],[0.75,0,0],[1,0,0],[0,1,0],[0.25,1,0],[0.5,1,0],[0.75,1,0],[1,1,0],[0,0.25,0],[0,0.5,0],[0,0.75,0],[1,0.25,0],[1,0.5,0],[1,0.75,0]];outlineConnect=0;fillColor=#f5f5f5;strokeColor=#666666;dashed=0;verticalLabelPosition=bottom;verticalAlign=top;align=center;html=1;fontSize=12;fontStyle=0;aspect=fixed;shape=mxgraph.aws4.resourceIcon;resIcon=mxgraph.aws4.managed_streaming_for_kafka;fontColor=#333333;container=0;" parent="ntPCs5WIHGhH-SsWkMff-1" vertex="1">
          <mxGeometry x="338" width="31.304347826086957" height="31.304347826086957" as="geometry" />
        </mxCell>
        <mxCell id="QnVffGnT3mfZB9zbuh3D-7" value="KaFKA" style="shape=umlLifeline;perimeter=lifelinePerimeter;whiteSpace=wrap;html=1;container=0;dropTarget=0;collapsible=0;recursiveResize=0;outlineConnect=0;portConstraint=eastwest;newEdgeStyle={&quot;edgeStyle&quot;:&quot;elbowEdgeStyle&quot;,&quot;elbow&quot;:&quot;vertical&quot;,&quot;curved&quot;:0,&quot;rounded&quot;:0};" parent="ntPCs5WIHGhH-SsWkMff-1" vertex="1">
          <mxGeometry x="345.82608695652175" width="78.26086956521739" height="300" as="geometry" />
        </mxCell>
        <mxCell id="QnVffGnT3mfZB9zbuh3D-8" value="" style="sketch=0;points=[[0,0,0],[0.25,0,0],[0.5,0,0],[0.75,0,0],[1,0,0],[0,1,0],[0.25,1,0],[0.5,1,0],[0.75,1,0],[1,1,0],[0,0.25,0],[0,0.5,0],[0,0.75,0],[1,0.25,0],[1,0.5,0],[1,0.75,0]];outlineConnect=0;fillColor=#f5f5f5;strokeColor=#666666;dashed=0;verticalLabelPosition=bottom;verticalAlign=top;align=center;html=1;fontSize=12;fontStyle=0;aspect=fixed;shape=mxgraph.aws4.resourceIcon;resIcon=mxgraph.aws4.managed_streaming_for_kafka;fontColor=#333333;container=0;" parent="ntPCs5WIHGhH-SsWkMff-1" vertex="1">
          <mxGeometry x="338" width="31.304347826086957" height="31.304347826086957" as="geometry" />
        </mxCell>
        <mxCell id="QnVffGnT3mfZB9zbuh3D-9" value="" style="html=1;points=[];perimeter=orthogonalPerimeter;outlineConnect=0;targetShapes=umlLifeline;portConstraint=eastwest;newEdgeStyle={&quot;edgeStyle&quot;:&quot;elbowEdgeStyle&quot;,&quot;elbow&quot;:&quot;vertical&quot;,&quot;curved&quot;:0,&quot;rounded&quot;:0};container=0;" parent="ntPCs5WIHGhH-SsWkMff-1" vertex="1">
          <mxGeometry x="381.04" y="80" width="7.83" height="30" as="geometry" />
        </mxCell>
        <mxCell id="QnVffGnT3mfZB9zbuh3D-25" value="CRM Retail Topic" style="shape=umlLifeline;perimeter=lifelinePerimeter;whiteSpace=wrap;html=1;container=0;dropTarget=0;collapsible=0;recursiveResize=0;outlineConnect=0;portConstraint=eastwest;newEdgeStyle={&quot;edgeStyle&quot;:&quot;elbowEdgeStyle&quot;,&quot;elbow&quot;:&quot;vertical&quot;,&quot;curved&quot;:0,&quot;rounded&quot;:0};" parent="ntPCs5WIHGhH-SsWkMff-1" vertex="1">
          <mxGeometry x="494.52173913043475" width="82.60869565217392" height="300" as="geometry" />
        </mxCell>
        <mxCell id="QnVffGnT3mfZB9zbuh3D-26" value="" style="sketch=0;points=[[0,0,0],[0.25,0,0],[0.5,0,0],[0.75,0,0],[1,0,0],[0,1,0],[0.25,1,0],[0.5,1,0],[0.75,1,0],[1,1,0],[0,0.25,0],[0,0.5,0],[0,0.75,0],[1,0.25,0],[1,0.5,0],[1,0.75,0]];outlineConnect=0;fillColor=#f5f5f5;strokeColor=#666666;dashed=0;verticalLabelPosition=bottom;verticalAlign=top;align=center;html=1;fontSize=12;fontStyle=0;aspect=fixed;shape=mxgraph.aws4.resourceIcon;resIcon=mxgraph.aws4.managed_streaming_for_kafka;fontColor=#333333;container=0;" parent="ntPCs5WIHGhH-SsWkMff-1" vertex="1">
          <mxGeometry x="552.3478260869565" width="33.04347826086957" height="33.04347826086957" as="geometry" />
        </mxCell>
        <mxCell id="QnVffGnT3mfZB9zbuh3D-29" value="" style="html=1;points=[];perimeter=orthogonalPerimeter;outlineConnect=0;targetShapes=umlLifeline;portConstraint=eastwest;newEdgeStyle={&quot;edgeStyle&quot;:&quot;elbowEdgeStyle&quot;,&quot;elbow&quot;:&quot;vertical&quot;,&quot;curved&quot;:0,&quot;rounded&quot;:0};container=0;" parent="ntPCs5WIHGhH-SsWkMff-1" vertex="1">
          <mxGeometry x="531.6908695652173" y="80" width="8.26" height="50" as="geometry" />
        </mxCell>
        <mxCell id="QnVffGnT3mfZB9zbuh3D-32" value="Client" style="shape=umlLifeline;perimeter=lifelinePerimeter;whiteSpace=wrap;html=1;container=0;dropTarget=0;collapsible=0;recursiveResize=0;outlineConnect=0;portConstraint=eastwest;newEdgeStyle={&quot;edgeStyle&quot;:&quot;elbowEdgeStyle&quot;,&quot;elbow&quot;:&quot;vertical&quot;,&quot;curved&quot;:0,&quot;rounded&quot;:0};" parent="ntPCs5WIHGhH-SsWkMff-1" vertex="1">
          <mxGeometry x="644.5217391304348" width="82.60869565217392" height="300" as="geometry" />
        </mxCell>
        <mxCell id="QnVffGnT3mfZB9zbuh3D-34" value="" style="html=1;points=[];perimeter=orthogonalPerimeter;outlineConnect=0;targetShapes=umlLifeline;portConstraint=eastwest;newEdgeStyle={&quot;edgeStyle&quot;:&quot;elbowEdgeStyle&quot;,&quot;elbow&quot;:&quot;vertical&quot;,&quot;curved&quot;:0,&quot;rounded&quot;:0};container=0;" parent="ntPCs5WIHGhH-SsWkMff-1" vertex="1">
          <mxGeometry x="681.6908695652173" y="80" width="8.26" height="40" as="geometry" />
        </mxCell>
      </root>
    </mxGraphModel>
  </diagram>
</mxfile>
